<svg width="221" height="52" viewBox="0 0 221 52" fill="none" xmlns="http://www.w3.org/2000/svg">
<path d="M79.736 21.0732C77.8929 14.4891 73.3875 11.3596 69.2098 11.3596C63.8033 11.3596 58.8884 16.6432 60.9772 26.3567C62.6565 34.1195 67.981 37.1677 73.2237 37.1677C78.4663 37.1677 83.9956 33.9163 85.1834 29.2017L85.6749 29.2424C83.9546 35.8671 78.9168 39.4843 71.5853 39.4843C63.148 39.4843 56.5128 34.2008 56.5128 24.853C56.5128 15.5052 63.148 10.2216 71.5853 10.2216C75.2716 10.2216 82.8488 12.2131 82.8488 17.1309C82.8488 19.2443 81.4153 20.3416 80.2275 20.87L79.736 21.0732Z" fill="black"/>
<path d="M89.2793 10.6281H93.6208V23.8776H107.547V10.6281H111.929V39.0779H107.547V24.7717H93.6208V39.0779H89.2793V10.6281Z" fill="black"/>
<path d="M117.499 10.6281H121.841V39.0779H117.499V10.6281Z" fill="black"/>
<path d="M127.247 15.749V10.6281H146.62L131.179 38.265H134.415C137.405 38.265 141.05 37.1271 143.508 35.3794L145.433 33.9163V39.0779H125.814L141.296 11.5628H138.142C135.398 11.5628 132.039 12.5383 129.746 14.042L127.247 15.749Z" fill="black"/>
<path d="M167.017 33.914V39.0756H150.634V10.6281H154.935V38.1838H156.205C159.072 38.1838 162.553 37.0864 164.929 35.5013L167.017 33.9163V33.914Z" fill="black"/>
<path d="M175.127 39.0756H168L180.616 10.6258H184.629L196.139 39.0756H190.978L187.496 29.8498H173.407C172.874 32.6947 173.325 35.8649 174.718 38.3034L175.127 39.0756ZM187.169 28.9556L181.107 12.7799L180.82 12.1702L174.185 27.4112C173.939 27.8989 173.776 28.4273 173.612 28.9556H187.169Z" fill="black"/>
<path d="M199.21 10.6281H209.327C216.74 10.6281 218.542 13.9607 218.542 17.9437C218.542 21.6829 215.88 24.4872 212.153 24.4872V24.6904C218.542 24.6904 220.385 28.0637 220.385 31.559C220.385 35.2575 218.133 39.0779 210.433 39.0779H199.21V10.6281ZM209.859 24.3653C212.44 24.3653 214.242 21.0326 214.242 17.7812C214.242 14.5297 212.522 11.5222 209.859 11.5222H203.552L203.511 24.3653H209.859ZM209.9 38.1838C213.668 38.1838 215.757 34.7698 215.757 31.6403C215.757 28.3076 213.505 25.2594 210.269 25.2594H203.552V38.1838H209.9Z" fill="black"/>
<path d="M50.0893 49.7037H0V0H50.0893V49.7037ZM1.36527 48.3489H48.724V1.35475H1.36527V48.3489Z" fill="black"/>
<path d="M41.0445 34.0405C41.0445 36.05 40.669 37.9738 39.9796 39.7417H34.7119C35.8997 37.7367 36.5914 35.3388 36.5914 32.7625C36.5914 25.7155 31.4216 20.0052 25.0458 20.0052C18.67 20.0052 13.5002 25.7155 13.5002 32.7625C13.5002 35.3388 14.192 37.7367 15.3798 39.7417H10.1098C9.42037 37.9738 9.04492 36.05 9.04492 34.0405C9.04492 25.2707 16.208 18.1628 25.0458 18.1628C33.8836 18.1628 41.0445 25.2707 41.0445 34.0405Z" fill="black"/>
<path d="M37.2764 9.95972C34.357 13.7824 29.731 16.2526 24.5225 16.2526C20.4996 16.2526 16.8202 14.7781 14.01 12.3441L15.2661 11.0435C17.2912 12.965 19.9762 14.1324 22.9252 14.1324C26.3952 14.1324 29.5035 12.5134 31.5946 9.95972H37.2764Z" fill="black"/>
<path d="M14.688 10.4813L13.4206 11.7977L12.8108 9.95972L14.688 10.4813Z" fill="black"/>
</svg>
