<svg width="192" height="45" viewBox="0 0 192 45" fill="none" xmlns="http://www.w3.org/2000/svg">
<path d="M69.2729 18.2365C67.6717 12.5387 63.7575 9.83051 60.128 9.83051C55.431 9.83051 51.161 14.4028 52.9758 22.8088C54.4347 29.5266 59.0605 32.1644 63.6152 32.1644C68.1699 32.1644 72.9736 29.3507 74.0055 25.2708L74.4325 25.306C72.938 31.0389 68.5613 34.1692 62.1919 34.1692C54.8617 34.1692 49.0972 29.5969 49.0972 21.5074C49.0972 13.418 54.8617 8.8457 62.1919 8.8457C65.3944 8.8457 71.9773 10.5691 71.9773 14.8249C71.9773 16.6538 70.7319 17.6034 69.6999 18.0606L69.2729 18.2365Z" fill="white"/>
<path d="M77.564 9.19727H81.3358V20.6632H93.4342V9.19727H97.2416V33.8173H93.4342V21.437H81.3358V33.8173H77.564V9.19727Z" fill="white"/>
<path d="M102.081 9.19727H105.853V33.8173H102.081V9.19727Z" fill="white"/>
<path d="M110.55 13.6289V9.19727H127.381L113.966 33.1139H116.777C119.374 33.1139 122.541 32.1291 124.676 30.6167L126.349 29.3505V33.8173H109.304L122.755 10.0062H120.015C117.631 10.0062 114.713 10.8503 112.72 12.1517L110.55 13.6289Z" fill="white"/>
<path d="M145.101 29.3486V33.8154H130.868V9.19727H134.604V33.0436H135.707C138.198 33.0436 141.222 32.0939 143.286 30.7222L145.101 29.3505V29.3486Z" fill="white"/>
<path d="M152.147 33.8154H145.955L156.915 9.19531H160.402L170.401 33.8154H165.917L162.893 25.8314H150.652C150.19 28.2934 150.581 31.0368 151.791 33.1471L152.147 33.8154ZM162.608 25.0577L157.342 11.0594L157.093 10.5318L151.328 23.7211C151.115 24.1432 150.972 24.6004 150.83 25.0577H162.608Z" fill="white"/>
<path d="M173.07 9.19727H181.859C188.299 9.19727 189.865 12.0813 189.865 15.5281C189.865 18.7639 187.552 21.1908 184.314 21.1908V21.3666C189.865 21.3666 191.466 24.2858 191.466 27.3106C191.466 30.5112 189.509 33.8173 182.819 33.8173H173.07V9.19727ZM182.321 21.0852C184.563 21.0852 186.129 18.2012 186.129 15.3875C186.129 12.5737 184.634 9.97104 182.321 9.97104H176.841L176.806 21.0852H182.321ZM182.357 33.0436C185.631 33.0436 187.445 30.0891 187.445 27.3809C187.445 24.4969 185.488 21.859 182.677 21.859H176.841V33.0436H182.357Z" fill="white"/>
<path d="M43.5165 43.0128H0V0H43.5165V43.0128ZM1.18611 41.8404H42.3304V1.17238H1.18611V41.8404Z" fill="white"/>
<path d="M35.6584 29.4581C35.6584 31.1971 35.3322 32.8619 34.7332 34.3919H30.1568C31.1887 32.6568 31.7897 30.5816 31.7897 28.3522C31.7897 22.2538 27.2983 17.3122 21.7591 17.3122C16.22 17.3122 11.7286 22.2538 11.7286 28.3522C11.7286 30.5816 12.3296 32.6568 13.3615 34.3919H8.78308C8.18409 32.8619 7.85791 31.1971 7.85791 29.4581C7.85791 21.8689 14.081 15.7178 21.7591 15.7178C29.4373 15.7178 35.6584 21.8689 35.6584 29.4581Z" fill="white"/>
<path d="M32.3847 8.61914C29.8484 11.9272 25.8295 14.0649 21.3045 14.0649C17.8094 14.0649 14.6128 12.7889 12.1714 10.6825L13.2626 9.55705C15.022 11.2199 17.3547 12.2301 19.9167 12.2301C22.9314 12.2301 25.6318 10.8291 27.4485 8.61914H32.3847Z" fill="white"/>
<path d="M12.7605 9.07051L11.6594 10.2097L11.1296 8.61914L12.7605 9.07051Z" fill="white"/>
</svg>
